<svg width="1500" height="1500" viewBox="0 0 1500 1500" fill="none" xmlns="http://www.w3.org/2000/svg">
<circle cx="750" cy="750" r="750" fill="#1E293B"/>
<circle cx="750" cy="750" r="603" fill="#60A5FA"/>
<path d="M750.5 16L1386.6 1117.75H114.404L750.5 16Z" fill="#1E293B"/>
<path d="M750.5 1485L114.404 383.25L1386.6 383.25L750.5 1485Z" fill="#1E293B"/>
<circle cx="750" cy="750" r="520" fill="#1E293B"/>
<path d="M655.052 838.7C655.052 904.1 636.152 958.1 598.352 1000.7C561.152 1042.7 504.452 1063.7 428.252 1063.7C362.852 1063.7 304.052 1044.5 251.852 1006.1L294.152 940.4C317.552 955.4 339.752 966.2 360.752 972.8C381.752 978.8 403.052 981.8 424.652 981.8C463.652 981.8 494.252 969.2 516.452 944C539.252 918.8 550.652 883.1 550.652 836.9V511.1H364.352V431H655.052V838.7ZM1059.7 418.4C1100.5 418.4 1135.3 423.5 1164.1 433.7C1192.9 443.9 1220.5 459.8 1246.9 481.4L1192.9 546.2C1155.1 515.6 1112.2 500.3 1064.2 500.3C1013.8 500.3 972.7 519.8 940.9 558.8C909.1 597.2 893.2 657.8 893.2 740.6C893.2 822.2 908.8 882.5 940 921.5C971.2 959.9 1012.9 979.1 1065.1 979.1C1095.1 979.1 1120.6 974.6 1141.6 965.6C1163.2 956 1184.5 942.8 1205.5 926L1255.9 989.9C1205.5 1039.1 1140.7 1063.7 1061.5 1063.7C1008.1 1063.7 960.4 1051.4 918.4 1026.8C876.4 1001.6 843.4 964.7 819.4 916.1C796 867.5 784.3 809 784.3 740.6C784.3 673.4 796.3 615.5 820.3 566.9C844.9 518.3 878.2 481.4 920.2 456.2C962.2 431 1008.7 418.4 1059.7 418.4Z" fill="#60A5FA"/>
</svg>
